<?xml version="1.0" encoding="utf-8"?>
<!-- Generator: Adobe Illustrator 27.5.0, SVG Export Plug-In . SVG Version: 6.00 Build 0)  -->
<svg version="1.1" id="Calque_1" xmlns="http://www.w3.org/2000/svg" xmlns:xlink="http://www.w3.org/1999/xlink" x="0px" y="0px"
	 viewBox="0 0 40 40" style="enable-background:new 0 0 40 40;" xml:space="preserve">
<g transform="translate(0.000000,800.000000) scale(0.100000,-0.100000)">
	<path d="M189.8,7966c-21.1-2.1-40.6-9.9-56.8-22.8c-11-8.8-21.7-22.2-28.4-35.6c-1.3-2.6-6.1-14.2-6.1-14.8c0-0.1,7.1-2.5,15.7-5.3
		c8.6-2.8,23.2-7.5,32.5-10.6c9.3-3,17.1-5.4,17.4-5.3s1.1,1.5,1.7,3c2.8,6.8,8.9,13.7,15.3,17.5c4.1,2.5,10.1,4.3,15.1,4.7l3.9,0.3
		v34.6v34.7l-3.1,0C195.2,7966.4,191.9,7966.2,189.8,7966z"/>
	<path d="M200.4,7847.2c-0.2-0.2-0.4-15.8-0.4-34.7v-34.4l3.7-0.3c13-1.1,25.4-10,30.8-22c2.3-5.1,3.2-9.5,3.2-15.6
		c-0.1-10.6-3.4-18.5-10.9-26c-5.1-5.1-8.4-7.2-14.6-9.4c-6.1-2.1-14.4-2.5-20.7-0.9c-12.1,3-22.4,12.2-26.6,23.9
		c-2.5,6.9-2.9,15.9-1.2,21.9c0.6,1.8,0.6,2.4,0.2,2.5c-3.9,1.4-63.9,20.7-64.6,20.9c-0.8,0.1-1.1-0.5-1.9-3.1
		c-4.2-14.5-5.2-32.3-2.7-47.2c6.7-39.2,34.4-71.4,72.5-84c18.4-6.1,39.6-6.8,58.8-2c43.2,10.8,75.1,47.1,80.4,91.7
		c0.6,5.5,0.6,17.7,0,23.9c-1.6,14.2-6.6,29.6-14.1,42.2c-6.1,10.3-16.5,22.3-25.6,29.5c-12,9.4-27.3,16.9-41.8,20.3
		C217.4,7846.2,201.2,7848,200.4,7847.2z"/>
</g>
</svg>
