<?xml version="1.0" encoding="utf-8"?>
<!-- Generator: Adobe Illustrator 27.4.1, SVG Export Plug-In . SVG Version: 6.00 Build 0)  -->
<svg version="1.1"
	 id="svg3639" xmlns:svg="http://www.w3.org/2000/svg" xmlns:cc="http://creativecommons.org/ns#" xmlns:sodipodi="http://sodipodi.sourceforge.net/DTD/sodipodi-0.dtd" xmlns:dc="http://purl.org/dc/elements/1.1/" xmlns:rdf="http://www.w3.org/1999/02/22-rdf-syntax-ns#" xmlns:inkscape="http://www.inkscape.org/namespaces/inkscape"
	 xmlns="http://www.w3.org/2000/svg" xmlns:xlink="http://www.w3.org/1999/xlink" x="0px" y="0px" viewBox="0 0 8192 1950.2"
	 style="enable-background:new 0 0 8192 1950.2;" xml:space="preserve">
<style type="text/css">
	.st0{fill:#FFFFFF;}
</style>
<g id="Calque_1">
	<path class="st0" d="M0,1645.3h1694.2V508.7H0V1645.3z M1319.1,1131.6l-62-16.3c-81.5-21.2-128.8-71.7-128.8-158.2
		c0-96.2,66.9-154.9,205.4-154.9c68.5,0,120.7,4.9,145.1,8.2c11.4,1.6,16.3,6.5,14.7,19.5l-9.8,62c-3.3,13-6.5,18-18,19.5
		c-3.3,0-8.2,0-13,0c-21.2-1.6-73.4-6.5-125.5-6.5c-39.1,0-78.3,8.2-78.3,52.2c0,22.8,11.4,35.9,34.2,45.7
		c8.2,3.3,16.3,6.5,27.7,8.2l62,16.3c110.9,27.7,141.9,83.2,141.9,154.9c0,123.9-97.8,168-229.9,168c-58.7,0-120.7-4.9-145.1-8.2
		c-11.4-1.6-16.3-6.5-14.7-19.5l9.8-65.2c3.3-13,6.5-18,18-19.5c3.3,0,8.2,0,13,0c21.2,1.6,81.5,6.5,117.4,6.5
		c76.7,0,109.2-8.2,109.2-55.5C1390.9,1161,1369.7,1146.3,1319.1,1131.6z M637.6,831.6c0-8.2,1.6-14.7,4.9-18
		c3.3-3.3,8.2-4.9,18-4.9h404.4c16.3,0,21.2,6.5,21.2,22.8v57c0,16.3-4.9,22.8-21.2,22.8H922.9v414.2c0,16.3-4.9,22.8-21.2,22.8
		h-76.7c-4.9,0-8.2,0-9.8-1.6c-4.9-1.6-8.2-4.9-9.8-11.4c0-3.3-1.6-6.5-1.6-11.4V909.9H662c-8.2,0-13-1.6-18-4.9
		c-3.3-3.3-4.9-9.8-4.9-18v-55.5H637.6z M198.9,831.6c0-4.9,0-8.2,1.6-9.8c1.6-6.5,4.9-9.8,9.8-11.4c3.3-1.6,6.5-1.6,9.8-1.6H406
		c128.8,0,187.5,58.7,187.5,163c0,50.5-18,84.8-40.8,107.6c-14.7,14.7-31,26.1-45.7,35.9l122.3,202.2c3.3,4.9,4.9,9.8,4.9,13
		c1.6,11.4-9.8,14.7-18,14.7h-91.3c-9.8,0-16.3-1.6-21.2-4.9c-4.9-3.2-9.8-8.2-13-14.7l-99.5-179.4c-6.5-9.8-8.2-16.3-8.2-24.5
		c0-3.3,1.6-8.2,3.3-18l8.2-35.9c1.6-8.2,3.3-13,6.5-16.3c6.5-11.4,16.3-6.5,34.2-14.7c19.5-8.2,39.1-21.2,39.1-65.2
		c0-11.4-1.6-21.2-4.9-29.3c-9.8-24.5-32.6-35.9-70.1-35.9h-79.9v415.8c0,16.3-4.9,22.8-21.2,22.8h-76.7c-4.9,0-8.2,0-9.8-1.6
		c-4.9-1.6-8.2-4.9-9.8-11.4c0-3.3-1.6-6.5-1.6-11.4V831.6H198.9z M6776.6,844.6c0-231.5-115.7-335.9-308.2-335.9h-326.1v1136.5h225
		v-451.7h75l115.7,450.1h233.2L6644.6,1143C6724.5,1100.7,6776.6,1009.3,6776.6,844.6z M6450.5,1025.7h-83.2v-331h81.5
		c70.1,0,104.4,57,104.4,164.7C6551.7,981.6,6514.2,1025.7,6450.5,1025.7z M5811.4,1353.4c1.6,68.5-34.2,112.5-97.8,112.5
		c-58.7,0-102.7-37.5-102.7-112.5V508.7h-226.7v852.8c0,205.4,119,301.7,313.1,301.7c184.2,0,326.1-107.6,326.1-308.2V508.7h-215.2
		v844.6H5811.4z M2204.5,490.8c-182.7,0-327.7,104.4-327.7,293.5v582.1c0,198.9,138.6,296.7,326.1,296.7
		c172.8,0,306.6-104.4,306.6-283.7v-115.7h-203.8v102.7c0,58.7-39.1,99.5-99.5,99.5c-65.2,0-102.7-39.1-102.7-107.6V789.2
		c0-62,32.6-104.4,101.1-104.4c60.3,0,101.1,37.5,101.1,99.5v106h203.8V764.8C2509.5,590.3,2375.8,490.8,2204.5,490.8z
		 M4340.6,508.7h-223.4v1136.5h549.5v-194h-326.1V508.7z M2928.5,490.8c-187.5,0-329.4,106-329.4,309.8v551.1
		c0,212,133.7,311.4,327.7,311.4c182.7,0,329.4-102.7,329.4-313.1V797.3C3256.3,587,3111.1,490.8,2928.5,490.8z M3029.6,1356.6
		c0,62-34.2,107.6-102.7,107.6c-68.5,0-102.7-45.7-102.7-109.2V792.5c0-63.6,34.2-104.4,101.1-104.4c62,0,104.4,37.5,104.4,104.4
		V1356.6L3029.6,1356.6z M4978.1,1157.7h256V965.3h-256V697.9H5301V508.7h-546.3v1136.5h547.9v-194h-324.5L4978.1,1157.7
		L4978.1,1157.7z M3786.2,1353.4c1.6,68.5-34.2,112.5-97.8,112.5c-58.7,0-102.7-37.5-102.7-112.5V508.7H3359v852.8
		c0,205.4,119,301.7,313.1,301.7c184.2,0,326.1-107.6,326.1-308.2V508.7h-212L3786.2,1353.4L3786.2,1353.4z M7565.9,406V0
		c-275.6,0-510.4,169.6-595.1,432.1l386.4,125.5C7386.5,464.7,7466.4,406,7565.9,406z M7565.9,697.9v406
		c120.7,0,220.2,99.5,220.2,220.2s-99.5,220.2-220.2,220.2s-220.2-99.5-220.2-220.2c0-26.1,3.3-44,11.4-68.5l-386.4-125.5
		c-21.2,63.6-31,125.5-31,194c0,345.7,280.4,626.1,626.1,626.1c345.7,0,626.1-280.4,626.1-626.1
		C8192,978.3,7909.9,697.9,7565.9,697.9z"/>
</g>
</svg>
